<?xml version="1.0" encoding="UTF-8"?>
<svg version="1.1" xmlns="http://www.w3.org/2000/svg" width="320" height="74">
<path d="M0 0 C0.66 0.66 1.32 1.32 2 2 C4.64310924 1.71680972 6.40628923 0.7783877 8.75 -0.5 C14.3168063 -3.06929521 18.84966599 -3.57636038 24.6875 -1.9375 C28.94626247 -0.29273656 31.91697946 1.86967412 34 6 C36.6464483 13.80734332 35.6778127 20.68733009 34.125 28.625 C33.92519531 29.72457031 33.72539062 30.82414062 33.51953125 31.95703125 C33.0294035 34.64106417 32.5169975 37.32101296 32 40 C28.04 40 24.08 40 20 40 C20.19916016 38.67548828 20.19916016 38.67548828 20.40234375 37.32421875 C21.25680164 31.51764726 22.09489237 25.70782577 22.75 19.875 C22.84796875 19.02679688 22.9459375 18.17859375 23.046875 17.3046875 C22.9922879 14.62082169 22.53266928 13.19862143 21 11 C17.28129719 9.94753694 14.92751735 9.6838009 11.25 10.9375 C6.18071635 15.58434335 5.38342281 23.34317041 4.375 29.875 C3.111875 37.77625 3.111875 37.77625 2 40 C-1.63 40 -5.26 40 -9 40 C-8.51171875 36.09375 -8.0234375 32.1875 -7.53515625 28.28125 C-7.44943359 27.57750244 -7.36371094 26.87375488 -7.27539062 26.14868164 C-7.08873717 24.69235443 -6.8837053 23.23828651 -6.66210938 21.78686523 C-5.9788372 17.31088237 -5.9788372 17.31088237 -7.375 13.0625 C-8.83642269 11.12430473 -8.83642269 11.12430473 -10 10 C-11.85287502 9.92773498 -13.70833878 9.9161878 -15.5625 9.9375 C-16.57441406 9.94652344 -17.58632812 9.95554687 -18.62890625 9.96484375 C-19.41136719 9.97644531 -20.19382813 9.98804688 -21 10 C-21.11069824 10.55349121 -21.22139648 11.10698242 -21.33544922 11.67724609 C-23.22363281 21.11816406 -25.11181641 30.55908203 -27 40 C-30.63 40 -34.26 40 -38 40 C-37.39463099 31.18179139 -36.22833462 22.627001 -34.625 13.9375 C-34.41617188 12.72900391 -34.20734375 11.52050781 -33.9921875 10.27539062 C-33.78078125 9.12103516 -33.569375 7.96667969 -33.3515625 6.77734375 C-33.07046631 5.21874634 -33.07046631 5.21874634 -32.78369141 3.62866211 C-31.95210688 0.83935664 -31.30465964 -0.27273377 -29 -2 C-20.16204264 -4.94598579 -8.36206711 -3.81427623 0 0 Z " fill="#0080F9" transform="translate(185,18)"/>
<path d="M0 0 C0 1.98 0 3.96 0 6 C0.7425 5.195625 1.485 4.39125 2.25 3.5625 C7.04461509 -0.90520951 12.18331722 -0.18275839 18.4375 -0.1875 C19.7069043 -0.20586914 19.7069043 -0.20586914 21.00195312 -0.22460938 C29.39425257 -0.24432504 29.39425257 -0.24432504 33 2 C35.23676974 4.34837571 35.99517098 6.02096911 36.01123047 9.27685547 C35.76364524 12.02303563 35.3758207 14.71539675 34.9375 17.4375 C34.81439453 18.36626953 34.69128906 19.29503906 34.56445312 20.25195312 C33.72669805 25.83036961 32.65336231 29.656021 29 34 C25.24779819 36.34512613 23.47038145 37 19 37 C18.401875 37.61875 17.80375 38.2375 17.1875 38.875 C11.21997802 44.67202135 0.7295125 43.58958341 -7 44 C-7.99 48.95 -8.98 53.9 -10 59 C-13.63 59 -17.26 59 -21 59 C-21.21128759 53.10703364 -20.40836635 47.65778811 -19.35546875 41.8671875 C-19.18501541 40.91232452 -19.01456207 39.95746155 -18.83894348 38.97366333 C-18.47806669 36.9644563 -18.1139676 34.95582565 -17.74682617 32.94775391 C-17.18839971 29.8799427 -16.64743055 26.80938106 -16.10742188 23.73828125 C-15.75366264 21.78105839 -15.39887966 19.82402023 -15.04296875 17.8671875 C-14.88346237 16.95250702 -14.72395599 16.03782654 -14.55961609 15.09542847 C-13.4943363 9.38109099 -12.21268251 5.21268251 -8 1 C-5.1244315 0.04147717 -3.12889911 0 0 0 Z M-2 11 C-2.50449402 13.58252893 -3.00374301 16.16588703 -3.5 18.75 C-3.64308594 19.47960938 -3.78617188 20.20921875 -3.93359375 20.9609375 C-4.58888879 24.39343532 -5 27.49169491 -5 31 C7.87 31.495 7.87 31.495 21 32 C21.515625 28.885625 22.03125 25.77125 22.5625 22.5625 C22.7282251 21.57967041 22.8939502 20.59684082 23.06469727 19.58422852 C23.18901123 18.81522217 23.3133252 18.04621582 23.44140625 17.25390625 C23.57232666 16.46314697 23.70324707 15.6723877 23.83813477 14.85766602 C23.89155029 14.24463623 23.94496582 13.63160645 24 13 C22.25493385 11.25493385 19.80960857 11.76717216 17.43359375 11.68359375 C15.7465332 11.62075195 15.7465332 11.62075195 14.02539062 11.55664062 C12.24938477 11.49766602 12.24938477 11.49766602 10.4375 11.4375 C9.24962891 11.39431641 8.06175781 11.35113281 6.83789062 11.30664062 C3.89205216 11.20016454 0.9461257 11.09815159 -2 11 Z " fill="#0080F9" transform="translate(21,15)"/>
<path d="M0 0 C-0.99 6.6 -1.98 13.2 -3 20 C-1.35 18.68 0.3 17.36 2 16 C6.3012662 14.44025676 10.91724052 14.81592704 15.4375 14.8125 C16.7069043 14.79413086 16.7069043 14.79413086 18.00195312 14.77539062 C26.13128218 14.75629275 26.13128218 14.75629275 30 17 C33.71592237 22.57388356 31.95303077 29.79413936 30.8125 36.125 C30.71130859 36.80175781 30.61011719 37.47851562 30.50585938 38.17578125 C29.54733138 43.53317553 27.68422717 46.20117789 24 50 C21.74096067 51.48249456 20.23188383 51.96432557 17.5625 52.375 C14.82487521 52.85182045 14.82487521 52.85182045 12.5 55 C8.26454563 58.38836349 3.88005356 58.12265428 -1.39453125 58.09765625 C-2.59658203 58.09443359 -3.79863281 58.09121094 -5.03710938 58.08789062 C-6.28298828 58.07951172 -7.52886719 58.07113281 -8.8125 58.0625 C-10.07771484 58.05798828 -11.34292969 58.05347656 -12.64648438 58.04882812 C-15.7643711 58.03706251 -18.88216133 58.02062272 -22 58 C-20.46031904 46.0066957 -18.61415349 34.06120117 -16.50299072 22.15551758 C-16.25200719 20.72426707 -16.00792666 19.29178804 -15.77093506 17.8581543 C-15.43174495 15.81815707 -15.06674107 13.78434221 -14.6953125 11.75 C-14.48922363 10.56921875 -14.28313477 9.3884375 -14.07080078 8.171875 C-11.37564407 0.18841034 -8.36268807 0 0 0 Z M-5 24 C-5.50534727 26.72827365 -6.00443845 29.45744694 -6.5 32.1875 C-6.64308594 32.95642578 -6.78617187 33.72535156 -6.93359375 34.51757812 C-7.06894531 35.26845703 -7.20429688 36.01933594 -7.34375 36.79296875 C-7.53227539 37.82200317 -7.53227539 37.82200317 -7.72460938 38.87182617 C-8.1069436 41.46878969 -8.1069436 41.46878969 -8 46 C0.25 46 8.5 46 17 46 C18.41229992 41.05695028 19.29160652 37.50783664 19.625 32.5625 C19.810625 29.8090625 19.810625 29.8090625 20 27 C12.08 27 4.16 27 -4 27 C-4.33 26.01 -4.66 25.02 -5 24 Z M16 48 C17 51 17 51 17 51 Z " fill="#0080F9" transform="translate(288,0)"/>
<path d="M0 0 C3.63 0 7.26 0 11 0 C10.11392405 10.37974684 10.11392405 10.37974684 9.4375 14.0625 C8.80112218 18.3353225 8.54327257 22.69592453 9 27 C9.66 27.66 10.32 28.32 11 29 C15.33137783 28.85798761 18.02761849 28.54021195 21.8125 26.4375 C28.00606831 19.53609531 28.48848798 8.83323334 30 0 C33.96 0 37.92 0 42 0 C40.82819014 9.16142257 39.30426231 18.23157102 37.625 27.3125 C37.3297644 28.97514893 37.3297644 28.97514893 37.02856445 30.67138672 C35.31154599 39.76469465 32.95401681 48.49950602 26 55 C18.04407257 59.62654476 9.83205603 60.20801401 1 58 C1.33 54.04 1.66 50.08 2 46 C3.44632812 46.03480469 3.44632812 46.03480469 4.921875 46.0703125 C6.81679687 46.09738281 6.81679687 46.09738281 8.75 46.125 C10.00296875 46.14820313 11.2559375 46.17140625 12.546875 46.1953125 C15.77505744 46.012723 17.43771265 45.90375556 20 44 C21.26804566 41.9664052 21.26804566 41.9664052 22 40 C21.45472656 40.23976562 20.90945312 40.47953125 20.34765625 40.7265625 C14.38317217 43.07157334 9.98879738 43.49908462 4 41 C0.27404152 38.72302537 -2.39268071 36.09866418 -4 32 C-5.07305314 22.5933653 -4.34082542 8.68165085 0 0 Z " fill="#0080F9" transform="translate(108,15)"/>
<path d="M0 0 C1.2890625 -0.01417969 2.578125 -0.02835938 3.90625 -0.04296875 C7.33795383 0.17710791 9.5319704 0.48303373 12.5 2.1875 C14.41194235 4.62992346 14.50740889 5.97606154 14.3984375 9.0859375 C14.22570312 10.23320312 14.05296875 11.38046875 13.875 12.5625 C13.78234863 13.1922876 13.68969727 13.8220752 13.59423828 14.47094727 C12.13164984 24.08044997 10.29370587 33.63558089 8.5 43.1875 C4.54 43.1875 0.58 43.1875 -3.5 43.1875 C-3.5 42.1975 -3.5 41.2075 -3.5 40.1875 C-4.923125 40.9609375 -4.923125 40.9609375 -6.375 41.75 C-11.16883187 43.77815964 -15.51939883 43.49061074 -20.5 42.1875 C-24.39430665 40.36045146 -26.85684539 38.03812384 -29.4375 34.625 C-31.42515183 28.19436172 -31.7591256 21.11419798 -28.9375 14.875 C-24.95572933 8.14524676 -19.89805307 3.65351769 -12.5 1.1875 C-8.31076791 0.14384113 -4.31056266 0.02155281 0 0 Z M-17.28125 16.33984375 C-19.54429037 19.77067097 -19.69663938 22.05807306 -19.5 26.1875 C-18.26546291 29.33494519 -18.26546291 29.33494519 -15.5 31.1875 C-10.79448365 31.87055882 -8.53156842 31.63516177 -4.1875 29.75 C0.07116736 25.68941019 1.26895585 20.96002984 1.75 15.1875 C1.70830128 13.19115441 1.70830128 13.19115441 0.5 12.1875 C-6.38555999 11.32952013 -12.24205904 11.11538842 -17.28125 16.33984375 Z " fill="#0080F9" transform="translate(88.5,14.8125)"/>
<path d="M0 0 C4.93815429 4.26476961 6.78094732 7.32755725 7.3125 13.8125 C7.08713776 20.86501248 4.41212927 26.30469497 -0.3203125 31.4609375 C-6.49573408 37.11934704 -13.04845062 38.37500193 -21.17578125 38.27734375 C-25.41514844 37.86102968 -28.62837425 36.60028684 -32 34 C-35.96862208 29.01378251 -37.44426937 24.81028738 -37.33203125 18.53515625 C-36.42093856 11.57869561 -32.92778039 6.36835329 -27.5625 2 C-19.48191965 -3.63915706 -8.6339764 -5.96155513 0 0 Z M-24.4375 13.8125 C-25.27941131 17.08659956 -25.42065098 19.63479218 -25 23 C-22.31843012 26.16912804 -20.66719059 26.9029541 -16.5625 27.5 C-12.34863154 26.90857987 -10.24685997 25.71830137 -7 23 C-4.65776872 19.80604825 -4.4448587 16.8859891 -5 13 C-7.40927223 9.7403964 -8.85939897 8.22316107 -12.875 7.4375 C-17.52477173 8.27445891 -21.41480233 10.00127251 -24.4375 13.8125 Z " fill="#0080F9" transform="translate(260,19)"/>
</svg>
